<svg width="30" height="30" viewBox="0 0 30 30" fill="none" xmlns="http://www.w3.org/2000/svg">
<path d="M11.5624 0H2.18742C0.981216 0 0 0.976434 0 2.17676V7.77435C0 8.97491 0.981216 9.95134 2.18742 9.95134H11.5624C12.7689 9.95134 13.7501 8.97491 13.7501 7.77435V2.17676C13.7501 0.976434 12.7689 0 11.5624 0Z" fill="white"/>
<path d="M11.5624 12.439H2.18742C0.981216 12.439 0 13.4154 0 14.616V27.677C0 28.8773 0.981216 29.8537 2.18742 29.8537H11.5624C12.7689 29.8537 13.7501 28.8773 13.7501 27.677V14.616C13.7501 13.4154 12.7689 12.439 11.5624 12.439Z" fill="white"/>
<path d="M27.8127 19.9025H18.4377C17.2312 19.9025 16.25 20.8789 16.25 22.0795V27.677C16.25 28.8774 17.2312 29.8538 18.4377 29.8538H27.8127C29.0189 29.8538 30.0001 28.8774 30.0001 27.677V22.0795C30.0001 20.8789 29.0189 19.9025 27.8127 19.9025Z" fill="white"/>
<path d="M27.8127 0H18.4377C17.2312 0 16.25 0.976435 16.25 2.17676V15.2378C16.25 16.4384 17.2312 17.4148 18.4377 17.4148H27.8127C29.0189 17.4148 30.0001 16.4384 30.0001 15.2378V2.17676C30.0001 0.976435 29.0189 0 27.8127 0V0Z" fill="white"/>
</svg>
